<mxfile host="Electron" modified="2024-04-15T15:35:21.823Z" agent="Mozilla/5.0 (Windows NT 10.0; Win64; x64) AppleWebKit/537.36 (KHTML, like Gecko) draw.io/24.2.5 Chrome/120.0.6099.109 Electron/28.1.0 Safari/537.36" etag="wwcFVQMVzl6mLZ4aR_ai" version="24.2.5" type="device">
  <diagram name="tapir" id="EYhuo7ovVSXExfLLNNKf">
    <mxGraphModel dx="713" dy="384" grid="1" gridSize="10" guides="1" tooltips="1" connect="1" arrows="1" fold="1" page="1" pageScale="1" pageWidth="850" pageHeight="1100" math="0" shadow="0">
      <root>
        <mxCell id="0" />
        <mxCell id="1" parent="0" />
        <mxCell id="W9oYNlILde7nBqY7IgrN-1" style="edgeStyle=orthogonalEdgeStyle;rounded=0;orthogonalLoop=1;jettySize=auto;html=1;exitX=0.5;exitY=1;exitDx=0;exitDy=0;entryX=0.5;entryY=0;entryDx=0;entryDy=0;" edge="1" parent="1" source="W9oYNlILde7nBqY7IgrN-3" target="W9oYNlILde7nBqY7IgrN-8">
          <mxGeometry relative="1" as="geometry" />
        </mxCell>
        <mxCell id="W9oYNlILde7nBqY7IgrN-2" value="&lt;font color=&quot;#ff9933&quot;&gt;cl_prepare&lt;/font&gt;" style="edgeLabel;html=1;align=center;verticalAlign=middle;resizable=0;points=[];" vertex="1" connectable="0" parent="W9oYNlILde7nBqY7IgrN-1">
          <mxGeometry x="-0.2533" relative="1" as="geometry">
            <mxPoint as="offset" />
          </mxGeometry>
        </mxCell>
        <mxCell id="W9oYNlILde7nBqY7IgrN-3" value="Init" style="ellipse;whiteSpace=wrap;html=1;" vertex="1" parent="1">
          <mxGeometry x="120" y="20" width="70" height="30" as="geometry" />
        </mxCell>
        <mxCell id="W9oYNlILde7nBqY7IgrN-4" value="&lt;u&gt;&lt;font style=&quot;font-size: 10px;&quot; color=&quot;#006600&quot;&gt;&lt;b&gt;&lt;br&gt;&lt;/b&gt;&lt;/font&gt;&lt;/u&gt;" style="rounded=0;orthogonalLoop=1;jettySize=auto;html=1;exitX=0;exitY=1;exitDx=0;exitDy=0;entryX=0.5;entryY=0;entryDx=0;entryDy=0;" edge="1" parent="1" source="W9oYNlILde7nBqY7IgrN-8" target="W9oYNlILde7nBqY7IgrN-11">
          <mxGeometry x="0.0476" y="-20" relative="1" as="geometry">
            <mxPoint x="243.25126265847098" y="214.14213562373084" as="sourcePoint" />
            <mxPoint x="208" y="250" as="targetPoint" />
            <mxPoint as="offset" />
          </mxGeometry>
        </mxCell>
        <mxCell id="W9oYNlILde7nBqY7IgrN-5" value="&lt;font color=&quot;#ff9933&quot;&gt;cl_commit&lt;/font&gt;&lt;div&gt;&lt;u&gt;&lt;font style=&quot;font-size: 10px;&quot; color=&quot;#006600&quot;&gt;All KMs:&lt;br&gt;Locked&lt;/font&gt;&lt;/u&gt;&lt;font color=&quot;#ff9933&quot;&gt;&lt;br&gt;&lt;/font&gt;&lt;/div&gt;" style="edgeLabel;html=1;align=center;verticalAlign=middle;resizable=0;points=[];" vertex="1" connectable="0" parent="W9oYNlILde7nBqY7IgrN-4">
          <mxGeometry x="-0.2553" y="1" relative="1" as="geometry">
            <mxPoint x="-5" y="6" as="offset" />
          </mxGeometry>
        </mxCell>
        <mxCell id="W9oYNlILde7nBqY7IgrN-6" value="" style="edgeStyle=none;rounded=0;orthogonalLoop=1;jettySize=auto;html=1;exitX=1;exitY=1;exitDx=0;exitDy=0;entryX=0.5;entryY=0;entryDx=0;entryDy=0;" edge="1" parent="1" source="W9oYNlILde7nBqY7IgrN-8" target="W9oYNlILde7nBqY7IgrN-14">
          <mxGeometry x="0.1045" y="20" relative="1" as="geometry">
            <mxPoint as="offset" />
            <mxPoint x="412" y="300" as="targetPoint" />
          </mxGeometry>
        </mxCell>
        <mxCell id="W9oYNlILde7nBqY7IgrN-7" value="&lt;font color=&quot;#ff9933&quot;&gt;cl_abort&lt;/font&gt;&lt;div&gt;&lt;u&gt;&lt;font style=&quot;font-size: 10px;&quot; color=&quot;#990000&quot;&gt;Some KM:&lt;br&gt;Not Okay&lt;/font&gt;&lt;/u&gt;&lt;font color=&quot;#ff9933&quot;&gt;&lt;br&gt;&lt;/font&gt;&lt;/div&gt;" style="edgeLabel;html=1;align=center;verticalAlign=middle;resizable=0;points=[];" vertex="1" connectable="0" parent="W9oYNlILde7nBqY7IgrN-6">
          <mxGeometry x="-0.2613" y="2" relative="1" as="geometry">
            <mxPoint x="2" y="7" as="offset" />
          </mxGeometry>
        </mxCell>
        <mxCell id="W9oYNlILde7nBqY7IgrN-8" value="&lt;font style=&quot;font-size: 13px;&quot; color=&quot;#004c99&quot;&gt;Prepared&lt;/font&gt;" style="ellipse;whiteSpace=wrap;html=1;strokeColor=#004C99;" vertex="1" parent="1">
          <mxGeometry x="120" y="90.29" width="70" height="40" as="geometry" />
        </mxCell>
        <mxCell id="W9oYNlILde7nBqY7IgrN-9" value="&lt;span style=&quot;font-size: 10px;&quot;&gt;&lt;u style=&quot;&quot;&gt;All KMs:&lt;br&gt;Committed&lt;/u&gt;&lt;br&gt;&lt;/span&gt;" style="edgeStyle=orthogonalEdgeStyle;curved=1;rounded=0;orthogonalLoop=1;jettySize=auto;html=1;entryX=0;entryY=0.5;entryDx=0;entryDy=0;exitX=0;exitY=0.5;exitDx=0;exitDy=0;" edge="1" parent="1" source="W9oYNlILde7nBqY7IgrN-11" target="W9oYNlILde7nBqY7IgrN-3">
          <mxGeometry x="0.1308" relative="1" as="geometry">
            <Array as="points">
              <mxPoint x="70" y="215" />
              <mxPoint x="70" y="35" />
            </Array>
            <mxPoint x="135" y="120" as="sourcePoint" />
            <mxPoint as="offset" />
          </mxGeometry>
        </mxCell>
        <mxCell id="W9oYNlILde7nBqY7IgrN-10" value="&lt;font color=&quot;#ff9933&quot;&gt;cl_ready_c&lt;/font&gt;" style="edgeLabel;html=1;align=center;verticalAlign=middle;resizable=0;points=[];" vertex="1" connectable="0" parent="W9oYNlILde7nBqY7IgrN-9">
          <mxGeometry x="-0.5741" y="-7" relative="1" as="geometry">
            <mxPoint x="-7" y="8" as="offset" />
          </mxGeometry>
        </mxCell>
        <mxCell id="W9oYNlILde7nBqY7IgrN-11" value="&lt;font style=&quot;font-size: 13px;&quot; color=&quot;#006600&quot;&gt;Committed&lt;/font&gt;" style="ellipse;whiteSpace=wrap;html=1;strokeColor=#00CC00;" vertex="1" parent="1">
          <mxGeometry x="80" y="195" width="70" height="40" as="geometry" />
        </mxCell>
        <mxCell id="W9oYNlILde7nBqY7IgrN-12" value="&lt;span style=&quot;font-size: 10px;&quot;&gt;&lt;u style=&quot;&quot;&gt;All KMs:&lt;br&gt;Aborted&lt;/u&gt;&lt;br&gt;&lt;/span&gt;" style="edgeStyle=orthogonalEdgeStyle;curved=1;rounded=0;orthogonalLoop=1;jettySize=auto;html=1;entryX=1;entryY=0.5;entryDx=0;entryDy=0;exitX=1;exitY=0.5;exitDx=0;exitDy=0;" edge="1" parent="1" source="W9oYNlILde7nBqY7IgrN-14" target="W9oYNlILde7nBqY7IgrN-3">
          <mxGeometry x="0.1065" relative="1" as="geometry">
            <Array as="points">
              <mxPoint x="250" y="215" />
              <mxPoint x="250" y="35" />
            </Array>
            <mxPoint x="482" y="160" as="sourcePoint" />
            <mxPoint as="offset" />
          </mxGeometry>
        </mxCell>
        <mxCell id="W9oYNlILde7nBqY7IgrN-13" value="&lt;font color=&quot;#ff9933&quot;&gt;cl_ready_a&lt;/font&gt;" style="edgeLabel;html=1;align=center;verticalAlign=middle;resizable=0;points=[];" vertex="1" connectable="0" parent="W9oYNlILde7nBqY7IgrN-12">
          <mxGeometry x="-0.4885" y="11" relative="1" as="geometry">
            <mxPoint x="21" y="20" as="offset" />
          </mxGeometry>
        </mxCell>
        <mxCell id="W9oYNlILde7nBqY7IgrN-14" value="&lt;font style=&quot;font-size: 13px;&quot; color=&quot;#990000&quot;&gt;Aborted&lt;/font&gt;" style="ellipse;whiteSpace=wrap;html=1;strokeColor=#FF3333;" vertex="1" parent="1">
          <mxGeometry x="170" y="195" width="70" height="40" as="geometry" />
        </mxCell>
        <mxCell id="W9oYNlILde7nBqY7IgrN-17" value="" style="edgeStyle=none;rounded=0;orthogonalLoop=1;jettySize=auto;html=1;exitX=1;exitY=1;exitDx=0;exitDy=0;entryX=0.5;entryY=0;entryDx=0;entryDy=0;" edge="1" parent="1" source="W9oYNlILde7nBqY7IgrN-21" target="W9oYNlILde7nBqY7IgrN-27">
          <mxGeometry relative="1" as="geometry" />
        </mxCell>
        <mxCell id="W9oYNlILde7nBqY7IgrN-19" value="&lt;font color=&quot;#ff9933&quot;&gt;occ_fail&lt;/font&gt;" style="edgeLabel;html=1;align=center;verticalAlign=middle;resizable=0;points=[];" vertex="1" connectable="0" parent="W9oYNlILde7nBqY7IgrN-17">
          <mxGeometry x="0.389" y="1" relative="1" as="geometry">
            <mxPoint x="-9" y="-12" as="offset" />
          </mxGeometry>
        </mxCell>
        <mxCell id="W9oYNlILde7nBqY7IgrN-21" value="&lt;span style=&quot;font-size: 13px;&quot;&gt;Try Prep&lt;/span&gt;" style="ellipse;whiteSpace=wrap;html=1;" vertex="1" parent="1">
          <mxGeometry x="484.14" y="15" width="70" height="40" as="geometry" />
        </mxCell>
        <mxCell id="W9oYNlILde7nBqY7IgrN-22" style="edgeStyle=orthogonalEdgeStyle;curved=1;rounded=0;orthogonalLoop=1;jettySize=auto;html=1;exitX=0;exitY=0.5;exitDx=0;exitDy=0;entryX=0;entryY=1;entryDx=0;entryDy=0;" edge="1" parent="1" source="W9oYNlILde7nBqY7IgrN-25" target="W9oYNlILde7nBqY7IgrN-25">
          <mxGeometry relative="1" as="geometry">
            <mxPoint x="400" y="-20" as="targetPoint" />
          </mxGeometry>
        </mxCell>
        <mxCell id="W9oYNlILde7nBqY7IgrN-23" value="" style="edgeStyle=orthogonalEdgeStyle;rounded=0;orthogonalLoop=1;jettySize=auto;html=1;exitX=1;exitY=0.5;exitDx=0;exitDy=0;entryX=0;entryY=0.5;entryDx=0;entryDy=0;" edge="1" parent="1" source="W9oYNlILde7nBqY7IgrN-25" target="W9oYNlILde7nBqY7IgrN-21">
          <mxGeometry y="10" relative="1" as="geometry">
            <mxPoint x="560" y="-115" as="sourcePoint" />
            <mxPoint x="620" y="-5" as="targetPoint" />
            <mxPoint as="offset" />
          </mxGeometry>
        </mxCell>
        <mxCell id="W9oYNlILde7nBqY7IgrN-24" value="&lt;font color=&quot;#ff9933&quot;&gt;prepare&lt;/font&gt;" style="edgeLabel;html=1;align=center;verticalAlign=middle;resizable=0;points=[];" vertex="1" connectable="0" parent="W9oYNlILde7nBqY7IgrN-23">
          <mxGeometry x="-0.1556" y="-3" relative="1" as="geometry">
            <mxPoint x="3" y="-11" as="offset" />
          </mxGeometry>
        </mxCell>
        <mxCell id="W9oYNlILde7nBqY7IgrN-25" value="&lt;font style=&quot;font-size: 13px;&quot;&gt;Idle&lt;/font&gt;" style="ellipse;whiteSpace=wrap;html=1;" vertex="1" parent="1">
          <mxGeometry x="340" y="15" width="70" height="40" as="geometry" />
        </mxCell>
        <mxCell id="W9oYNlILde7nBqY7IgrN-26" value="" style="edgeStyle=none;rounded=0;orthogonalLoop=1;jettySize=auto;html=1;entryX=0.5;entryY=0;entryDx=0;entryDy=0;" edge="1" parent="1" source="W9oYNlILde7nBqY7IgrN-27" target="W9oYNlILde7nBqY7IgrN-31">
          <mxGeometry x="-0.1765" y="15" relative="1" as="geometry">
            <mxPoint as="offset" />
          </mxGeometry>
        </mxCell>
        <mxCell id="W9oYNlILde7nBqY7IgrN-27" value="&lt;font style=&quot;font-size: 13px;&quot; color=&quot;#990000&quot;&gt;OCC&lt;/font&gt;&lt;div&gt;&lt;font style=&quot;font-size: 13px;&quot; color=&quot;#990000&quot;&gt;fail&lt;/font&gt;&lt;/div&gt;" style="ellipse;whiteSpace=wrap;html=1;strokeColor=#FF3333;" vertex="1" parent="1">
          <mxGeometry x="529.14" y="90.28999999999996" width="70" height="40" as="geometry" />
        </mxCell>
        <mxCell id="W9oYNlILde7nBqY7IgrN-30" value="&lt;font style=&quot;font-size: 13px;&quot;&gt;Committed&lt;/font&gt;" style="ellipse;whiteSpace=wrap;html=1;strokeColor=#000000;" vertex="1" parent="1">
          <mxGeometry x="384.14" y="195" width="70" height="40" as="geometry" />
        </mxCell>
        <mxCell id="W9oYNlILde7nBqY7IgrN-31" value="&lt;font style=&quot;font-size: 13px;&quot;&gt;Aborted&lt;/font&gt;" style="ellipse;whiteSpace=wrap;html=1;strokeColor=#000000;" vertex="1" parent="1">
          <mxGeometry x="509.14" y="200" width="70" height="40" as="geometry" />
        </mxCell>
        <mxCell id="W9oYNlILde7nBqY7IgrN-34" value="&lt;font style=&quot;font-size: 13px;&quot; color=&quot;#006600&quot;&gt;OCC success&lt;/font&gt;" style="ellipse;whiteSpace=wrap;html=1;strokeColor=#00CC00;" vertex="1" parent="1">
          <mxGeometry x="444.14" y="90.28999999999996" width="70" height="40" as="geometry" />
        </mxCell>
        <mxCell id="W9oYNlILde7nBqY7IgrN-37" value="" style="rounded=0;orthogonalLoop=1;jettySize=auto;html=1;exitX=0;exitY=1;exitDx=0;exitDy=0;strokeColor=#000000;entryX=0.5;entryY=0;entryDx=0;entryDy=0;" edge="1" parent="1" source="W9oYNlILde7nBqY7IgrN-21" target="W9oYNlILde7nBqY7IgrN-34">
          <mxGeometry x="0.0606" y="-13" relative="1" as="geometry">
            <mxPoint x="484.39126265847096" y="59.14213562373084" as="sourcePoint" />
            <mxPoint x="364.14" y="130" as="targetPoint" />
            <mxPoint as="offset" />
            <Array as="points" />
          </mxGeometry>
        </mxCell>
        <mxCell id="W9oYNlILde7nBqY7IgrN-38" value="&lt;font color=&quot;#ff9933&quot;&gt;occ_success&lt;/font&gt;" style="edgeLabel;html=1;align=center;verticalAlign=middle;resizable=0;points=[];" vertex="1" connectable="0" parent="W9oYNlILde7nBqY7IgrN-37">
          <mxGeometry x="0.5039" y="-1" relative="1" as="geometry">
            <mxPoint x="2" y="-15" as="offset" />
          </mxGeometry>
        </mxCell>
        <mxCell id="W9oYNlILde7nBqY7IgrN-40" value="&lt;font style=&quot;&quot; color=&quot;#ff9933&quot;&gt;commit&lt;/font&gt;&lt;br&gt;&lt;font style=&quot;text-decoration-line: underline;&quot; color=&quot;#006600&quot;&gt;CL: Committed&lt;/font&gt;" style="edgeStyle=none;rounded=0;orthogonalLoop=1;jettySize=auto;html=1;entryX=0.5;entryY=0;entryDx=0;entryDy=0;exitX=0;exitY=1;exitDx=0;exitDy=0;" edge="1" parent="1" source="W9oYNlILde7nBqY7IgrN-34" target="W9oYNlILde7nBqY7IgrN-30">
          <mxGeometry x="0.1495" relative="1" as="geometry">
            <mxPoint x="379.14" y="130.28999999999996" as="sourcePoint" />
            <mxPoint x="334.14" y="255" as="targetPoint" />
            <mxPoint as="offset" />
          </mxGeometry>
        </mxCell>
        <mxCell id="W9oYNlILde7nBqY7IgrN-43" value="&lt;font style=&quot;&quot;&gt;&lt;font style=&quot;&quot; color=&quot;#ff9933&quot;&gt;abort&lt;/font&gt;&lt;br&gt;&lt;u style=&quot;&quot;&gt;&lt;font color=&quot;#990000&quot;&gt;CL:Aborted&lt;/font&gt;&lt;/u&gt;&lt;/font&gt;" style="edgeStyle=none;rounded=0;orthogonalLoop=1;jettySize=auto;html=1;exitX=1;exitY=1;exitDx=0;exitDy=0;entryX=0.5;entryY=0;entryDx=0;entryDy=0;" edge="1" parent="1" source="W9oYNlILde7nBqY7IgrN-34" target="W9oYNlILde7nBqY7IgrN-31">
          <mxGeometry x="0.3897" y="25" relative="1" as="geometry">
            <mxPoint as="offset" />
            <mxPoint x="403.88873734152924" y="124.43213562373091" as="sourcePoint" />
            <mxPoint x="639.14" y="235" as="targetPoint" />
          </mxGeometry>
        </mxCell>
        <mxCell id="W9oYNlILde7nBqY7IgrN-44" value="&lt;b&gt;a)&lt;/b&gt;" style="text;html=1;align=center;verticalAlign=middle;resizable=0;points=[];autosize=1;strokeColor=none;fillColor=none;" vertex="1" parent="1">
          <mxGeometry x="40" y="210" width="30" height="30" as="geometry" />
        </mxCell>
        <mxCell id="W9oYNlILde7nBqY7IgrN-45" value="&lt;b&gt;b)&lt;/b&gt;" style="text;html=1;align=center;verticalAlign=middle;resizable=0;points=[];autosize=1;strokeColor=none;fillColor=none;" vertex="1" parent="1">
          <mxGeometry x="300" y="205" width="30" height="30" as="geometry" />
        </mxCell>
        <mxCell id="W9oYNlILde7nBqY7IgrN-46" value="&lt;u style=&quot;forced-color-adjust: none; color: rgb(0, 76, 153); font-family: Helvetica; font-size: 11px; font-style: normal; font-variant-ligatures: normal; font-variant-caps: normal; font-weight: 400; letter-spacing: normal; orphans: 2; text-align: center; text-indent: 0px; text-transform: none; widows: 2; word-spacing: 0px; -webkit-text-stroke-width: 0px; white-space: nowrap; background-color: rgb(255, 255, 255);&quot;&gt;CL: Prepared&lt;/u&gt;" style="text;whiteSpace=wrap;html=1;" vertex="1" parent="1">
          <mxGeometry x="410" y="28" width="70" height="20" as="geometry" />
        </mxCell>
      </root>
    </mxGraphModel>
  </diagram>
</mxfile>
